<?xml version="1.0" encoding="UTF-8"?>
<svg width="1233px" height="1233px" viewBox="0 0 1233 1233" version="1.1" xmlns="http://www.w3.org/2000/svg" xmlns:xlink="http://www.w3.org/1999/xlink">
    <!-- Generator: Sketch 51.3 (57544) - http://www.bohemiancoding.com/sketch -->
    <title>face</title>
    <desc>Created with Sketch.</desc>
    <defs></defs>
    <g id="face" stroke="none" stroke-width="1" fill="none" fill-rule="evenodd">
        <path d="M377.300647,581 C479.441951,658.086299 574.352261,696.629448 662.031576,696.629448 C749.71089,696.629448 830.110622,664.22389 903.230771,599.412773 C814.056302,763.18697 725.795133,845.074069 638.447264,845.074069 C551.099394,845.074069 464.050522,757.049379 377.300647,581 Z" id="Path" fill="#C24038" fill-rule="nonzero"></path>
        <path d="M682,523.362273 C706.747851,452.632109 740.437785,421.664309 783.069803,430.458874 C825.701821,439.253439 865.755477,485.433814 903.230771,569 C862.171348,535.515725 825.299553,515.402376 792.615385,508.659955 C759.931217,501.917533 723.059422,506.818306 682,523.362273 Z" id="Path-2" fill="#444444" fill-rule="nonzero"></path>
        <path d="M610.230771,523.362273 C569.171348,506.818306 532.299553,501.917533 499.615385,508.659955 C466.931217,515.402376 430.059422,535.515725 389,569 C426.475294,485.433814 466.52895,439.253439 509.160968,430.458874 C551.792986,421.664309 585.48292,452.632109 610.230771,523.362273 Z" id="Path-2" fill="#444444" fill-rule="nonzero"></path>
        <circle id="Oval" fill-opacity="0.177677763" fill="#D8D8D8" fill-rule="nonzero" cx="997" cy="614" r="70"></circle>
        <circle id="Oval" fill-opacity="0.177677763" fill="#D8D8D8" fill-rule="nonzero" cx="232.56028" cy="624" r="70"></circle>
    </g>
</svg>